<svg viewBox="0 0 64 64" width="64" height="64" fill="none" xmlns="http://www.w3.org/2000/svg" role="img" aria-label="Universal Window Cleaning logo">
  <defs>
    <linearGradient id="uwcBg" x1="6" y1="6" x2="58" y2="58" gradientUnits="userSpaceOnUse">
      <stop stop-color="#ffffff"/><stop offset="1" stop-color="#EAF4FD"/>
    </linearGradient>
    <linearGradient id="uwcSquee" x1="20" y1="18" x2="44" y2="42" gradientUnits="userSpaceOnUse">
      <stop stop-color="#29ABE2"/><stop offset="1" stop-color="#1B75BC"/>
    </linearGradient>
  </defs>
  <rect x="3" y="3" width="58" height="58" rx="16" fill="url(#uwcBg)" stroke="#DCEBF8" stroke-width="1"/>
  <!-- swoosh ring -->
  <path d="M46 15a22 22 0 1 1-26 4" fill="none" stroke="#123B7A" stroke-width="4.4" stroke-linecap="round"/>
  <path d="M20 49a22 22 0 0 0 30-6" fill="none" stroke="#29ABE2" stroke-width="4.4" stroke-linecap="round"/>
  <!-- squeegee blade -->
  <g transform="rotate(-38 32 32)">
    <rect x="18" y="30" width="28" height="7" rx="2.5" fill="url(#uwcSquee)"/>
    <rect x="20" y="37" width="24" height="3.4" rx="1.7" fill="#123B7A"/>
    <!-- handle -->
    <rect x="30" y="12" width="4.6" height="18" rx="2.3" fill="#123B7A"/>
  </g>
  <!-- sparkles -->
  <path d="M43 20l1.2 3 3 1.2-3 1.2L43 28.4l-1.2-3-3-1.2 3-1.2z" fill="#29ABE2"/>
  <path d="M38 15l.8 2 2 .8-2 .8-.8 2-.8-2-2-.8 2-.8z" fill="#7DD3FC"/>
</svg>
